<?xml version="1.0" encoding="utf-8"?>
<svg viewBox="0 0 138.85333 138.24001" xmlns="http://www.w3.org/2000/svg">
  <g transform="matrix(1.333333, 0, 0, -1.333333, 0, 138.240005)" id="g10">
    <g transform="scale(0.1)" id="g12">
      <path id="path14" class="fill-target" style="fill:#3280a4;fill-opacity:1;fill-rule:nonzero;stroke:none" d="m 156.434,598.902 h 106.66 c 57.508,0 83.969,15.739 103.988,32.739 28.379,24.14 43.371,57.386 43.371,96.148 0,44.203 -22.867,83.231 -59.699,104.281 16.137,19.039 24.289,43.254 24.289,72.235 0,40.847 -13.301,73.129 -39.52,95.935 -28.871,25.66 -63.652,27.81 -93.976,27.81 h -85.113 c -7.454,0 -13.5,-6.04 -13.5,-13.5 V 612.402 c 0,-7.461 6.046,-13.5 13.5,-13.5 m 53.386,363.809 h 21.461 c 20.871,0 40.582,0 54.934,-9.059 13.957,-8.773 21.945,-25.441 21.945,-45.761 0,-22.559 -5.226,-34.332 -19.961,-44.95 -13.445,-9.687 -26.355,-10.421 -44.523,-10.421 -1.946,0 -3.914,0.011 -5.926,0.019 l -27.93,0.02 z m 0,-175.488 h 33.262 c 26.301,0 53.531,-0.782 72.188,-10.114 17.234,-8.445 28.3,-28.187 28.3,-50.351 0,-20.586 -10.179,-38.789 -28.656,-51.235 -15.543,-10.472 -34.242,-11.285 -58.961,-11.285 h -3.32 -0.227 -42.586 v 122.985"/>
      <path id="path16" class="fill-target" style="fill:#3280a4;fill-opacity:1;fill-rule:nonzero;stroke:none" d="m 673.824,590.184 c 61.043,0 117.731,22.746 159.641,64.054 42.168,41.575 65.398,98.121 65.398,159.242 0,61.122 -23.23,117.668 -65.398,159.239 -41.91,41.311 -98.598,64.061 -159.641,64.061 -59.863,0 -115.91,-23.42 -157.82,-65.94 -41.672,-42.27 -64.609,-98.461 -64.609,-158.231 0,-122.648 99.781,-222.425 222.429,-222.425 M 561.586,925.371 c 28.855,30.859 67.785,47.848 109.629,47.848 92.051,0 161.469,-69.047 161.469,-160.61 0,-43.437 -16.528,-83.609 -46.559,-113.121 -30.02,-29.496 -70.828,-45.746 -114.91,-45.746 -41.461,0 -80.289,16.93 -109.352,47.68 -28.148,29.789 -44.297,70.316 -44.297,111.187 0,42.364 15.637,82.411 44.02,112.762"/>
      <path id="path18" class="fill-target" style="fill:#3280a4;fill-opacity:1;fill-rule:nonzero;stroke:none" d="m 282.719,273.547 c -45.832,16.726 -73.934,28.617 -73.934,60.687 0,27.493 29.524,48.809 54.91,48.809 25.34,0 47.008,-13.938 57.953,-37.289 1.598,-3.399 4.508,-6.016 8.075,-7.227 1.453,-0.504 2.976,-0.754 4.484,-0.754 2.176,0 4.352,0.512 6.328,1.532 l 33.949,17.41 c 6.633,3.398 9.391,11.43 6.25,18.187 -19.527,41.973 -68.015,72.442 -115.296,72.442 -32.442,0 -62.961,-11.211 -85.922,-31.567 -24.27,-21.511 -37.637,-51.402 -37.637,-84.148 0,-78.234 73.187,-104.953 126.641,-124.465 40.617,-14.133 69.226,-27.109 69.226,-66.187 0,-42.9926 -33.672,-76.6723 -76.66,-76.6723 -29.473,0 -68.461,12.5 -86.871,72.0583 -1.086,3.532 -3.547,6.481 -6.828,8.203 -1.989,1.039 -4.199,1.567 -6.422,1.567 -1.406,0 -2.828,-0.207 -4.199,-0.649 l -38.301,-12.187 c -6.996,-2.223 -11.051,-9.512 -9.238,-16.621 C 127.176,45.8086 186.785,0.0117188 261.086,0.0117188 c 81.852,0 143.578,59.8515812 143.578,139.2222812 0,89.789 -67.617,114.473 -121.945,134.313"/>
      <path id="path20" class="fill-target" style="fill:#231f20;fill-opacity:1;fill-rule:nonzero;stroke:none" d="m 40.4063,559.84 c -22.6446,0 -40.40239375,-17.738 -40.40239375,-40.41 0,-22.657 17.75779375,-40.403 40.40239375,-40.403 22.664,0 40.4023,17.746 40.4023,40.403 0,22.672 -17.7383,40.41 -40.4023,40.41"/>
      <path id="path22" class="fill-target" style="fill:#ea232c;fill-opacity:1;fill-rule:nonzero;stroke:none" d="m 1001.01,559.84 c -22.647,0 -40.408,-17.738 -40.408,-40.41 0,-22.657 17.761,-40.403 40.408,-40.403 22.65,0 40.4,17.746 40.4,40.403 0,22.672 -17.75,40.41 -40.4,40.41"/>
      <path id="path24" class="fill-target" style="fill:#f6c217;fill-opacity:1;fill-rule:nonzero;stroke:none" d="m 884.934,497.148 h -728.5 c -7.661,0 -13.871,5.676 -13.871,12.661 v 17.875 c 0,6.984 6.21,12.648 13.871,12.648 h 728.5 c 7.656,0 13.867,-5.664 13.867,-12.648 v -17.875 c 0,-6.985 -6.211,-12.661 -13.867,-12.661"/>
      <path id="path26" class="fill-target" style="fill:#3280a4;fill-opacity:1;fill-rule:nonzero;stroke:none" d="m 898.801,224.941 v 199.836 c 0,7.645 -6.211,13.856 -13.871,13.856 h -39.172 c -7.656,0 -13.867,-6.211 -13.867,-13.856 v -40.293 c -41.84,40.512 -97.981,62.86 -158.442,62.86 -59.961,0 -116.097,-23.461 -158.082,-66.047 -41.726,-42.332 -64.715,-98.625 -64.715,-158.492 0,-122.8519 99.95,-222.7932812 222.797,-222.7932812 60.473,0 116.66,22.3163812 158.5,62.8398812 V 22.582 c 0,-7.6601 6.203,-13.87106 13.875,-13.87106 h 39.168 c 7.656,0 13.867,6.21096 13.867,13.87106 v 201.09 c 0,0.43 -0.058,0.84 -0.058,1.269 M 785.5,109.953 C 755.551,80.5156 714.832,64.3047 670.844,64.3047 c -41.356,0 -80.094,16.8984 -109.082,47.5703 -28.094,29.719 -44.199,70.148 -44.199,110.93 0,42.269 15.597,82.218 43.929,112.508 28.778,30.781 67.617,47.73 109.352,47.73 91.847,0 161.105,-68.887 161.105,-160.238 0,-43.34 -16.496,-83.418 -46.449,-112.852"/>
    </g>
  </g>
</svg>