<svg id="Layer_1" data-name="Layer 1" xmlns="http://www.w3.org/2000/svg" viewBox="0 0 2200 1030.11"><defs><style>.fill-target{fill:#9bc23b;}</style></defs><path class="fill-target" d="M722.74,314.57l-10.12-7.7c1.79-2.2,143.68-192.45,143.68-192.45l10.24,7.65C865.1,124,723.3,313.81,722.74,314.57"/><rect class="fill-target" x="677.12" y="254.57" width="84.25" height="12.78" transform="translate(119.92 736.6) rotate(-58.38)"/><rect class="fill-target" x="645.64" y="230.13" width="107.91" height="12.78" transform="translate(176.11 757.43) rotate(-63.54)"/><rect class="fill-target" x="614.12" y="211.57" width="122.02" height="12.78" transform="translate(226.62 767.63) rotate(-68.68)"/><rect class="fill-target" x="568.34" y="178.96" width="169.67" height="12.78" transform="translate(293.09 760.96) rotate(-73.81)"/><rect class="fill-target" x="557.94" y="196.88" width="117.62" height="12.78" transform="translate(299.06 769.63) rotate(-78.95)"/><rect class="fill-target" x="532.64" y="197.29" width="107.87" height="12.78" transform="translate(323.53 766.13) rotate(-84.08)"/><rect class="fill-target" x="516.86" y="209.49" width="80.01" height="12.78" transform="translate(333.55 769.8) rotate(-89.23)"/><rect class="fill-target" x="520.6" y="135.95" width="12.78" height="120.88" transform="translate(-13.47 40.85) rotate(-4.38)"/><rect class="fill-target" x="492.95" y="166.93" width="12.78" height="93.34" transform="translate(-28.46 85.58) rotate(-9.53)"/><rect class="fill-target" x="466.01" y="183.42" width="12.78" height="82.73" transform="translate(-41.52 126.93) rotate(-14.67)"/><rect class="fill-target" x="433.75" y="162.72" width="12.78" height="112.73" transform="translate(-48.2 162.12) rotate(-19.81)"/><rect class="fill-target" x="418.29" y="228.65" width="12.78" height="55.46" transform="translate(-68.52 203.12) rotate(-24.96)"/><rect class="fill-target" x="390.28" y="226.85" width="12.78" height="70.86" transform="translate(-78.05 234.25) rotate(-30.09)"/><rect class="fill-target" x="380.94" y="286.53" width="12.78" height="21.74" transform="translate(-100.62 277.97) rotate(-35.24)"/><rect class="fill-target" x="332.29" y="225.25" width="12.78" height="109.2" transform="translate(-100.61 286.09) rotate(-40.38)"/><rect class="fill-target" x="317.82" y="262.65" width="12.78" height="88.94" transform="translate(-122.08 323.3) rotate(-45.53)"/><rect class="fill-target" x="284.73" y="254.67" width="12.78" height="124.88" transform="translate(-138.67 341.29) rotate(-50.67)"/><rect class="fill-target" x="273.67" y="292.38" width="12.78" height="107.7" transform="translate(-163.71 383.34) rotate(-55.81)"/><rect class="fill-target" x="221.3" y="254.92" width="12.78" height="192.02" transform="translate(-189.65 379.59) rotate(-60.95)"/><rect class="fill-target" x="263.27" y="372.15" width="12.78" height="67.65" transform="translate(-210.75 488.01) rotate(-66.1)"/><rect class="fill-target" x="205.05" y="330.85" width="12.78" height="169.28" transform="translate(-249.98 482.06) rotate(-71.24)"/><rect class="fill-target" x="186.7" y="350.04" width="12.78" height="188.47" transform="translate(-284.15 527.34) rotate(-76.38)"/><rect class="fill-target" x="236.23" y="447.46" width="12.78" height="75.43" transform="translate(-273.02 653.63) rotate(-81.52)"/><rect class="fill-target" x="202.65" y="442.91" width="12.78" height="136.89" transform="translate(-313.6 690.32) rotate(-86.67)"/><rect class="fill-target" x="172.71" y="535.32" width="104.34" height="12.78" transform="translate(-16.97 7.36) rotate(-1.81)"/><rect class="fill-target" x="145.97" y="566.41" width="133.43" height="12.78" transform="translate(-67.76 29.95) rotate(-6.95)"/><rect class="fill-target" x="203.12" y="591.19" width="80.77" height="12.78" transform="translate(-119.83 64.3) rotate(-12.1)"/><rect class="fill-target" x="258.9" y="611.26" width="31.03" height="12.78" transform="translate(-170.72 109.07) rotate(-17.24)"/><rect class="fill-target" x="204.1" y="648.43" width="97.16" height="12.78" transform="translate(-230.34 145.57) rotate(-22.39)"/><rect class="fill-target" x="202.12" y="678.31" width="112.27" height="12.78" transform="translate(-287.3 196.97) rotate(-27.54)"/><rect class="fill-target" x="198.17" y="709.6" width="132.75" height="12.78" transform="translate(-344.61 256.05) rotate(-32.67)"/><rect class="fill-target" x="226.35" y="731.08" width="121.04" height="12.78" transform="translate(-391.94 330.81) rotate(-37.82)"/><rect class="fill-target" x="251.67" y="751.79" width="114.36" height="12.78" transform="translate(-433.83 413.73) rotate(-42.96)"/><rect class="fill-target" x="269.95" y="774.07" width="117.98" height="12.78" transform="translate(-471.6 503.94) rotate(-48.09)"/><rect class="fill-target" x="301.68" y="788.84" width="107.33" height="12.78" transform="translate(-494.39 603.88) rotate(-53.23)"/><rect class="fill-target" x="366.41" y="782.95" width="54.46" height="12.78" transform="translate(-484.91 710.83) rotate(-58.39)"/><rect class="fill-target" x="326.37" y="835.65" width="142.7" height="12.78" transform="translate(-533.32 822.8) rotate(-63.53)"/><rect class="fill-target" x="379.83" y="831.19" width="106.03" height="12.78" transform="translate(-504.8 936.15) rotate(-68.67)"/><rect class="fill-target" x="432.23" y="822.31" width="67.75" height="12.78" transform="translate(-459.73 1045.12) rotate(-73.8)"/><rect class="fill-target" x="441.6" y="843.37" width="97.31" height="12.78" transform="translate(-437.69 1168.14) rotate(-78.95)"/><rect class="fill-target" x="469.47" y="848.49" width="98.96" height="12.78" transform="translate(-384.86 1282.96) rotate(-84.08)"/><rect class="fill-target" x="514.44" y="834.56" width="67.69" height="12.78" transform="matrix(0.01, -1, 1, 0.01, -299.99, 1377.83)"/><rect class="fill-target" x="571.14" y="806.18" width="12.78" height="106.56" transform="translate(-63.98 46.64) rotate(-4.38)"/><rect class="fill-target" x="602.45" y="802.46" width="12.78" height="130.86" transform="matrix(0.99, -0.17, 0.17, 0.99, -135.24, 112.73)"/><rect class="fill-target" x="638.3" y="795.29" width="12.78" height="177.68" transform="translate(-202.87 192.07) rotate(-14.67)"/><rect class="fill-target" x="652.83" y="788.53" width="12.78" height="79.06" transform="translate(-241.66 272.48) rotate(-19.81)"/><rect class="fill-target" x="684.93" y="776.46" width="12.78" height="107.24" transform="translate(-285.67 369.15) rotate(-24.95)"/><rect class="fill-target" x="737" y="755.86" width="12.78" height="210.41" transform="translate(-331.58 488.9) rotate(-30.1)"/><rect class="fill-target" x="739.16" y="745.88" width="12.78" height="118.14" transform="translate(-327.84 577.72) rotate(-35.24)"/><polygon class="fill-target" points="732.85 753.67 726.14 745.7 735.88 737.42 742.58 745.39 732.85 753.67"/><rect class="fill-target" x="782.75" y="707.93" width="12.78" height="112.15" transform="translate(-308.89 791.85) rotate(-45.53)"/><rect class="fill-target" x="793" y="690.34" width="12.78" height="87.23" transform="translate(-274.97 887.12) rotate(-50.67)"/><rect class="fill-target" x="817.7" y="663.4" width="12.78" height="105.49" transform="translate(-231.36 995.45) rotate(-55.81)"/><rect class="fill-target" x="821.51" y="645.17" width="12.78" height="78.84" transform="translate(-172.53 1076.02) rotate(-60.96)"/><rect class="fill-target" x="866.07" y="599.08" width="12.78" height="148.72" transform="translate(-96.72 1198.23) rotate(-66.1)"/><rect class="fill-target" x="823.74" y="608.36" width="12.78" height="35.15" transform="translate(-29.44 1210.77) rotate(-71.25)"/><path class="fill-target" d="M948.24,634.07s-125.66-30.47-129.36-31.4l3-12.35,129.34,31.33Z"/><rect class="fill-target" x="870.91" y="527.3" width="12.78" height="105.44" transform="translate(174.34 1362.28) rotate(-81.53)"/><rect class="fill-target" x="866.26" y="505.25" width="12.78" height="90.03" transform="translate(272.57 1389.45) rotate(-86.67)"/><rect class="fill-target" x="828.03" y="515.48" width="66.96" height="12.78" transform="translate(-16.07 27.5) rotate(-1.81)"/><rect class="fill-target" x="825.96" y="488.35" width="58.09" height="12.78" transform="translate(-53.58 107.09) rotate(-6.95)"/><rect class="fill-target" x="821.15" y="458.61" width="84.63" height="12.78" transform="translate(-78.25 191.21) rotate(-12.09)"/><rect class="fill-target" x="814.94" y="437.62" width="40.01" height="12.78" transform="translate(-94.11 267.56) rotate(-17.25)"/><rect class="fill-target" x="805.3" y="409.28" width="57.73" height="12.78" transform="translate(-95.43 348.91) rotate(-22.38)"/><rect class="fill-target" x="789.62" y="367.5" width="131.32" height="12.78" transform="translate(-75.97 437.65) rotate(-27.53)"/><rect class="fill-target" x="771.38" y="331.13" width="167.88" height="12.78" transform="translate(-46.87 515.11) rotate(-32.67)"/><rect class="fill-target" x="766.38" y="344.51" width="38.23" height="12.78" transform="translate(-50.18 555.29) rotate(-37.82)"/><path class="fill-target" d="M758.75,348.43,750.14,339c2.05-1.86,21.24-19.77,21.24-19.77l8.71,9.36S759.2,348,758.75,348.43"/><rect class="fill-target" x="700.78" y="239.46" width="216.53" height="12.78" transform="translate(85.74 683.84) rotate(-48.1)"/><path class="fill-target" d="M540.69,539.33q-8-9.06-24.64-13.05a65.2,65.2,0,0,0,13-6.52,42.42,42.42,0,0,0,8.94-8.45,34.82,34.82,0,0,0,6.76-20.77,47.51,47.51,0,0,0-3.62-18.84,35,35,0,0,0-11.35-14.5c-5.07-3.86-11.84-7-20.05-9.18s-18.11-3.14-29.71-3.14H418V613.72h67.39c10.14,0,19.08-1.21,27-3.86A60,60,0,0,0,532.23,599a44.52,44.52,0,0,0,12.32-16.19,42.63,42.63,0,0,0,4.11-20C548.66,553.09,546,545.37,540.69,539.33Zm-83.33-65H480.3a74.23,74.23,0,0,1,11.36,1,15.14,15.14,0,0,1,12.56,9.9,31.29,31.29,0,0,1,1.44,10.15,24.46,24.46,0,0,1-1.93,10.14,14.09,14.09,0,0,1-5.55,6.28,29.83,29.83,0,0,1-8.94,3.14,77,77,0,0,1-11.59,1.21H457.36ZM509.29,570a16.79,16.79,0,0,1-3.87,7,18,18,0,0,1-7.73,5.07,38.55,38.55,0,0,1-12.8,1.93H457.36V542h27.29A43.22,43.22,0,0,1,497,543.43a21.14,21.14,0,0,1,7.73,3.87,16.37,16.37,0,0,1,4.35,6.28,31.17,31.17,0,0,1,1.2,8.45A30.13,30.13,0,0,1,509.29,570Z"/><polygon class="fill-target" points="678.85 474.84 678.85 444.88 570.16 444.88 570.16 613.72 678.85 613.72 678.85 583.53 609.53 583.53 609.53 543.19 662.67 543.19 662.67 514.21 609.53 514.21 609.53 474.84 678.85 474.84"/><path class="fill-target" d="M1099.46,443.39c-28.76,0-48-20.42-48-47.15s19.24-47.15,48-47.15c28.6,0,47.83,20.6,47.83,47.15S1128.23,443.39,1099.46,443.39Zm0-76.59c-16.51,0-26,11.06-26,29.44,0,18.56,9.7,29.45,26,29.45s25.88-10.89,25.88-29.45C1125.51,377.86,1115.8,366.8,1099.46,366.8Z"/><path class="fill-target" d="M1206.7,411.56v30.81h-21.45V350.11h32.51c25.88,0,37.11,13.11,37.11,30.13,0,18.39-11.57,31.32-37.11,31.32Zm0-16.17h11.06c11.07,0,15.66-5.61,15.66-15.15,0-8.34-4.93-14.12-15.66-14.12H1206.7Z"/><path class="fill-target" d="M1353.43,350.11v16.52h-37.79v21.44h28.94V403.9h-28.94v22h37.79v16.51H1294V350.11Z"/><path class="fill-target" d="M1416.58,353.35l43.74,55.32c-.34-3.57-.51-7-.51-9.87V349.94h18.9V442.2h-11.07c-3.23,0-5.44-.85-7.49-3.57l-43.4-55c.17,3.23.51,6.3.51,9V442h-18.9V349.77h11.24C1413.17,350.11,1414.37,350.63,1416.58,353.35Z"/><path class="fill-target" d="M1077.68,558.46h3.4c3.23,0,5.45-1,6.81-2.89l20.77-30.13c2.21-3.24,4.93-4.26,9.19-4.26h18.55l-27.23,37.28a19.15,19.15,0,0,1-6.3,5.62,14.9,14.9,0,0,1,8,6.64l27.91,42.72h-19.06c-4.94,0-6.64-1.36-8.34-3.91l-20.94-32.18c-1.53-2.38-3.57-3.23-7.66-3.23h-5.1v39.32H1056.4V521.18h21.45v37.28Z"/><path class="fill-target" d="M1197.85,524.42l43.75,55.32c-.35-3.58-.52-7-.52-9.87V521H1260v92.26h-11.07c-3.23,0-5.44-.85-7.49-3.57l-43.4-55c.17,3.23.51,6.29.51,9V613.1h-18.89V520.84h11.23C1194.44,521.18,1195.47,521.69,1197.85,524.42Z"/><path class="fill-target" d="M1348.83,614.46c-28.76,0-48-20.42-48-47.15s19.24-47.15,48-47.15c28.6,0,47.83,20.6,47.83,47.15S1377.43,614.46,1348.83,614.46Zm0-76.6c-16.51,0-26,11.07-26,29.45,0,18.56,9.7,29.45,26,29.45s25.87-10.89,25.87-29.45C1374.7,548.93,1365.17,537.86,1348.83,537.86Z"/><path class="fill-target" d="M1420.15,521.18h18c3.74,0,6.29,1.88,7.14,4.6l12.6,48.17a76.26,76.26,0,0,1,2.21,10.55,102.31,102.31,0,0,1,2.9-10.55l15-48.17c.68-2.38,3.4-4.6,7-4.6h6.29c3.75,0,6.13,1.71,7.15,4.6L1513.26,574a65.45,65.45,0,0,1,2.72,10c.69-3.74,1.37-7.15,2.22-10l12.59-48.17c.68-2.55,3.41-4.6,7-4.6h16.85l-28.42,92.26h-19.41l-17.36-57.19c-.51-1.7-1.19-3.92-1.87-6.3a46.66,46.66,0,0,1-1.87,6.3l-17.54,57.19h-19.4Z"/><path class="fill-target" d="M1614.37,596.25h34.21v17h-55.66V521h21.45Z"/><path class="fill-target" d="M1753.44,521.18v16.51h-37.79v21.45h28.94V575h-28.94v22h37.79v16.51H1694V521.18Z"/><path class="fill-target" d="M1834.12,613.44h-35.74V521.18h35.74c28.6,0,47.83,19.58,47.83,46.13C1882.12,593.87,1862.89,613.44,1834.12,613.44Zm0-75.75h-14.3v59.24h14.3c16.34,0,25.87-11.23,25.87-29.62C1860.16,548.93,1850.46,537.69,1834.12,537.69Z"/><path class="fill-target" d="M1978,595.23v-14h-9.19c-2.72,0-4.25-1.53-4.25-3.75V565.78h32.85v39c-9.36,7-20.26,9.87-35.41,9.87-26.89,0-47.15-20.08-47.15-47.15,0-27.57,19.07-47.15,48.69-47.15,15.49,0,26.89,5.28,34.38,12.43l-6.13,9.36A6.05,6.05,0,0,1,1987,545a9.33,9.33,0,0,1-3.92-1.19c-6.81-4.08-11.57-5.79-20.08-5.79-16,0-26,11.75-26,29.45,0,19.58,11.41,30.64,26.9,30.64A38.54,38.54,0,0,0,1978,595.23Z"/><path class="fill-target" d="M2100,521.18v16.51h-37.79v21.45h28.94V575h-28.94v22H2100v16.51h-59.41V521.18Z"/><path class="fill-target" d="M1059.8,784.51V693.78h28.94a51.61,51.61,0,0,1,14.47,1.71,28.12,28.12,0,0,1,9.87,4.76,17.89,17.89,0,0,1,5.79,7.49,26.17,26.17,0,0,1,1.87,9.87,20.57,20.57,0,0,1-1,6.47,17.9,17.9,0,0,1-3.23,5.79,24.43,24.43,0,0,1-5.28,4.77,30.35,30.35,0,0,1-7.49,3.4c6.64,1.36,11.57,3.74,15,7.15s5.1,8,5.1,13.62a26.54,26.54,0,0,1-2,10.55,20.68,20.68,0,0,1-6.13,8.17,29.58,29.58,0,0,1-10,5.28,46.69,46.69,0,0,1-13.45,1.87H1059.8Zm12.26-50.22h16.17a29,29,0,0,0,9-1.19,20,20,0,0,0,6.3-3.23,13.09,13.09,0,0,0,3.74-4.94,15.39,15.39,0,0,0,1.2-6.3c0-5.27-1.54-9.19-4.77-11.74s-8.17-3.74-15-3.74h-16.68v31.14Zm0,8.86v31.49h19.57a28.06,28.06,0,0,0,9-1.2,15.14,15.14,0,0,0,6.12-3.4,12.6,12.6,0,0,0,3.58-5.11,20.86,20.86,0,0,0,1.19-6.63,13.61,13.61,0,0,0-4.94-11.07c-3.23-2.72-8.34-4.08-15-4.08Z"/><path class="fill-target" d="M1235.47,693.78v10.05h-43.58V734h35.24v9.71h-35.24v31h43.58v10h-55.83V694h55.83Z"/><path class="fill-target" d="M1303.55,774.13h39.32v10.38H1291.3V693.78h12.25Z"/><path class="fill-target" d="M1434.62,775.49c2.38,0,4.77-.17,6.81-.34a31.84,31.84,0,0,0,5.79-1,35.82,35.82,0,0,0,5.1-1.71c1.54-.68,3.24-1.36,4.77-2.21V750.13H1443a2.33,2.33,0,0,1-1.87-.69,2.18,2.18,0,0,1-.68-1.7v-7h27.91v34.9a37.71,37.71,0,0,1-7.14,4.25,54,54,0,0,1-7.83,3.07,65,65,0,0,1-9,1.87,96.58,96.58,0,0,1-10.38.68,47.33,47.33,0,0,1-18-3.4,40.63,40.63,0,0,1-14.13-9.54,44.4,44.4,0,0,1-9.19-14.63,54.86,54.86,0,0,1-.17-37.62,42.15,42.15,0,0,1,9.36-14.64,43.42,43.42,0,0,1,14.64-9.53,52.85,52.85,0,0,1,19.23-3.41,61.55,61.55,0,0,1,10,.85,55.49,55.49,0,0,1,8.51,2.22,42.2,42.2,0,0,1,7.32,3.57,54.5,54.5,0,0,1,6.29,4.77l-3.4,5.61a3.08,3.08,0,0,1-2.72,1.71,4.08,4.08,0,0,1-2.22-.69c-1-.51-2.21-1.36-3.57-2.21a24.65,24.65,0,0,0-4.77-2.38q-2.81-1-6.64-2a36.1,36.1,0,0,0-9-.85,35.55,35.55,0,0,0-13.78,2.55,30.42,30.42,0,0,0-10.56,7.15,30.92,30.92,0,0,0-6.64,11.23,45.09,45.09,0,0,0-2.38,14.81,46.76,46.76,0,0,0,2.38,15.32,34.7,34.7,0,0,0,6.81,11.41,30.54,30.54,0,0,0,10.56,7.14A29.31,29.31,0,0,0,1434.62,775.49Z"/><path class="fill-target" d="M1539.65,784.51h-12.26V693.78h12.26Z"/><path class="fill-target" d="M1637.35,774.64a26.23,26.23,0,0,0,10-1.88,21.28,21.28,0,0,0,7.49-5.27,24,24,0,0,0,4.77-8.17,29.59,29.59,0,0,0,1.53-10.39V693.78h12.26v55.15a41.15,41.15,0,0,1-2.56,14.64,34.8,34.8,0,0,1-7.15,11.58,32.11,32.11,0,0,1-11.4,7.66,38.83,38.83,0,0,1-15.15,2.72,39.42,39.42,0,0,1-15.15-2.72,32.11,32.11,0,0,1-11.4-7.66,34.8,34.8,0,0,1-7.15-11.58,40.49,40.49,0,0,1-2.56-14.64V693.78h12.26v55.15a33.34,33.34,0,0,0,1.53,10.39,20.71,20.71,0,0,0,4.77,8.17,22.94,22.94,0,0,0,7.49,5.27A27.36,27.36,0,0,0,1637.35,774.64Z"/><path class="fill-target" d="M1778.63,754.89c.51,1.19.85,2.21,1.36,3.41a20,20,0,0,1,1.36-3.41c.51-1,1-2.21,1.54-3.23l30.63-55.83a3.25,3.25,0,0,1,1.71-1.71,8.28,8.28,0,0,1,2.55-.34h9v90.73h-10.72V714.89c0-1,.17-2,.17-3.06l-31.15,56.68a5,5,0,0,1-4.43,2.89H1779a5,5,0,0,1-4.42-2.89l-31.84-56.85c.17,1,.17,2.21.34,3.23,0,1,.18,2,.18,2.89v66.73H1732.5V693.78h9a10.38,10.38,0,0,1,2.56.34,4,4,0,0,1,1.7,1.71l31.32,55.83C1777.61,752.68,1778.12,753.7,1778.63,754.89Z"/></svg>