<?xml version="1.0" encoding="utf-8"?>
<svg version="1.1" viewBox="196.837 248.84 1600.003 1506.12" xmlns="http://www.w3.org/2000/svg">
  <g transform="matrix(1.333333, 0, 0, -1.333333, 0, 2000)" id="g10">
    <g transform="scale(0.1)" id="g12">
      <path id="path14" class="fill-target" fill="#70c62c" d="m 9358.7,11136.9 -95.09,72.4 c 16.81,20.6 1350.29,1808.6 1350.29,1808.6 l 96.2,-71.9 c -13.4,-18 -1346.08,-1801.9 -1351.4,-1809.1"/>
      <path id="path16" class="fill-target" fill="#70c62c" d="m 9169.46,11272.1 -102.27,62.9 415.15,674.3 102.27,-63 -415.15,-674.2"/>
      <path id="path18" class="fill-target" fill="#70c62c" d="m 8968.96,11389.7 -107.54,53.6 452.12,907.7 107.51,-53.5 -452.09,-907.8"/>
      <path id="path20" class="fill-target" fill="#70c62c" d="m 8758.69,11489 -111.89,43.6 417.16,1068.2 111.87,-43.7 -417.14,-1068.1"/>
      <path id="path22" class="fill-target" fill="#70c62c" d="m 8540.33,11568.9 -115.34,33.5 444.62,1531.3 115.34,-33.5 -444.62,-1531.3"/>
      <path id="path24" class="fill-target" fill="#70c62c" d="m 8315.71,11629 -117.88,23 211.81,1084.9 117.87,-23 -211.8,-1084.9"/>
      <path id="path26" class="fill-target" fill="#70c62c" d="m 8086.66,11668.7 -119.46,12.4 104.26,1008.4 119.45,-12.4 -104.25,-1008.4"/>
      <path id="path28" class="fill-target" fill="#70c62c" d="m 7854.91,11687.7 -120.1,1.6 9.99,751.9 120.1,-1.6 -9.99,-751.9"/>
      <path id="path30" class="fill-target" fill="#70c62c" d="m 7502.68,11676.7 -86.82,1132.6 119.74,9.2 86.81,-1132.7 -119.73,-9.1"/>
      <path id="path32" class="fill-target" fill="#70c62c" d="m 7272.59,11643.3 -145.16,865.1 118.44,19.9 145.16,-865.1 -118.44,-19.9"/>
      <path id="path34" class="fill-target" fill="#70c62c" d="m 7046.34,11589.5 -196.84,752.1 116.18,30.4 196.85,-752.1 -116.19,-30.4"/>
      <path id="path36" class="fill-target" fill="#70c62c" d="m 6825.93,11515.5 -359.04,996.8 113.01,40.7 359.03,-996.7 -113,-40.8"/>
      <path id="path38" class="fill-target" fill="#70c62c" d="m 6613.07,11422.2 -219.92,472.5 108.89,50.7 219.9,-472.6 -108.87,-50.6"/>
      <path id="path40" class="fill-target" fill="#70c62c" d="m 6409.34,11310.1 -333.93,576.2 103.92,60.2 333.92,-576.2 -103.91,-60.2"/>
      <path id="path42" class="fill-target" fill="#70c62c" d="m 6216.51,11180.1 -117.9,166.9 98.1,69.3 117.89,-166.9 -98.09,-69.3"/>
      <path id="path44" class="fill-target" fill="#70c62c" d="m 6036.07,11033.5 -664.84,781.7 91.48,77.8 664.85,-781.7 -91.49,-77.8"/>
      <path id="path46" class="fill-target" fill="#70c62c" d="m 5869.56,10871.2 -596.46,585.7 84.15,85.6 596.45,-585.6 -84.14,-85.7"/>
      <path id="path48" class="fill-target" fill="#70c62c" d="m 5718.25,10694.7 -907.77,743.9 76.12,92.9 907.77,-743.9 -76.12,-92.9"/>
      <path id="path50" class="fill-target" fill="#70c62c" d="m 5583.34,10505.3 -837.2,568.8 67.49,99.3 837.19,-568.7 -67.48,-99.4"/>
      <path id="path52" class="fill-target" fill="#70c62c" d="m 5465.98,10304.6 -1577.62,876.2 58.32,105 1577.61,-876.2 -58.31,-105"/>
      <path id="path54" class="fill-target" fill="#70c62c" d="m 5367.06,10094.2 -581.23,257.6 48.67,109.8 581.21,-257.6 -48.65,-109.8"/>
      <path id="path56" class="fill-target" fill="#70c62c" d="m 5287.41,9875.76 -1506.34,511.64 38.62,113.8 1506.36,-511.72 -38.64,-113.72"/>
      <path id="path58" class="fill-target" fill="#70c62c" d="m 3506.27,10068.1 1721.43,-416.98 28.25,116.72 -1721.4,416.96 -28.28,-116.7"/>
      <path id="path60" class="fill-target" fill="#70c62c" d="m 5188.33,9421.93 -701.12,104.49 17.71,118.77 701.1,-104.49 -17.69,-118.77"/>
      <path id="path62" class="fill-target" fill="#70c62c" d="m 5169.67,9190.2 -1284.3,74.76 6.98,119.91 1284.31,-74.77 -6.99,-119.9"/>
      <path id="path64" class="fill-target" fill="#70c62c" d="m 4191.72,8926.71 -3.79,120.05 980.12,30.98 3.79,-120.04 -980.12,-30.99"/>
      <path id="path66" class="fill-target" fill="#70c62c" d="m 3950.14,8574.55 -14.53,119.21 1244.73,151.82 14.54,-119.23 -1244.74,-151.8"/>
      <path id="path68" class="fill-target" fill="#70c62c" d="m 4496.37,8338.93 -25.17,117.44 742.18,159.05 25.16,-117.41 -742.17,-159.08"/>
      <path id="path70" class="fill-target" fill="#70c62c" d="m 5023.99,8188.06 -35.59,114.72 278.51,86.39 35.59,-114.73 -278.51,-86.38"/>
      <path id="path72" class="fill-target" fill="#70c62c" d="m 4541.9,7709.88 -45.74,111.05 844.34,347.7 45.73,-111.06 -844.33,-347.69"/>
      <path id="path74" class="fill-target" fill="#70c62c" d="m 4553.43,7361.46 -55.53,106.49 935.64,487.6 55.52,-106.49 -935.63,-487.6"/>
      <path id="path76" class="fill-target" fill="#70c62c" d="m 4560,6977.19 -64.82,101.09 1050.2,673.41 64.83,-101.11 L 4560,6977.19"/>
      <path id="path78" class="fill-target" fill="#70c62c" d="m 4849.96,6766.45 -73.65,94.87 898.68,697.34 73.62,-94.89 -898.65,-697.32"/>
      <path id="path80" class="fill-target" fill="#70c62c" d="m 5116.65,6557.83 -81.84,87.9 786.59,732.31 81.83,-87.89 -786.58,-732.32"/>
      <path id="path82" class="fill-target" fill="#70c62c" d="m 5332.24,6305.79 -89.39,80.24 740.55,825.22 89.38,-80.23 -740.54,-825.23"/>
      <path id="path84" class="fill-target" fill="#70c62c" d="m 5652.22,6179.68 -96.2,71.88 603.68,808.11 96.2,-71.9 -603.68,-808.09"/>
      <path id="path86" class="fill-target" fill="#70c62c" d="m 6182.84,6425.7 -102.27,62.95 268.29,435.85 102.27,-62.95 -268.29,-435.85"/>
      <path id="path88" class="fill-target" fill="#70c62c" d="m 6059.04,5552.85 -107.51,53.53 597.87,1200.42 107.5,-53.53 -597.86,-1200.42"/>
      <path id="path90" class="fill-target" fill="#70c62c" d="m 6509.07,5735.73 -111.87,43.68 362.46,928.2 111.85,-43.68 -362.44,-928.2"/>
      <path id="path92" class="fill-target" fill="#70c62c" d="m 6915.78,5982.7 -115.33,33.5 177.54,611.41 115.33,-33.49 -177.54,-611.42"/>
      <path id="path94" class="fill-target" fill="#70c62c" d="m 7145.21,5646.96 -117.86,23.01 175.21,897.57 117.86,-23.02 -175.21,-897.56"/>
      <path id="path96" class="fill-target" fill="#70c62c" d="m 7455.47,5590.38 -119.47,12.38 95.63,925.1 119.47,-12.37 -95.63,-925.11"/>
      <path id="path98" class="fill-target" fill="#70c62c" d="m 7775.04,5871.2 -120.09,1.62 8.43,636.04 120.12,-1.59 -8.46,-636.07"/>
      <path id="path100" class="fill-target" fill="#70c62c" d="m 7972.43,5512.13 -76.53,998.57 119.74,9.18 76.55,-998.55 -119.76,-9.2"/>
      <path id="path102" class="fill-target" fill="#70c62c" d="m 8330.83,5320.45 -203.54,1212.88 118.45,19.89 203.52,-1212.89 -118.43,-19.88"/>
      <path id="path104" class="fill-target" fill="#70c62c" d="m 8778.59,4961.3 -422.85,1615.41 116.17,30.39 422.85,-1615.4 -116.17,-30.4"/>
      <path id="path106" class="fill-target" fill="#70c62c" d="m 8831.21,5941.31 -251.85,698.98 112.97,40.7 251.85,-698.96 -112.97,-40.72"/>
      <path id="path108" class="fill-target" fill="#70c62c" d="m 9221.6,5809.98 -425.19,913.72 108.9,50.68 425.18,-913.74 -108.89,-50.66"/>
      <path id="path110" class="fill-target" fill="#70c62c" d="m 9996.69,5115.48 -991.63,1710.78 103.9,60.21 991.64,-1710.78 -103.91,-60.21"/>
      <path id="path112" class="fill-target" fill="#70c62c" d="m 9844.38,6040.28 -640.64,906.79 98.07,69.28 640.64,-906.77 -98.07,-69.3"/>
      <path id="path114" class="fill-target" fill="#70c62c" d="m 9453.71,7010.32 -62.97,74.9 91.49,77.8 62.96,-74.9 -91.48,-77.8"/>
      <path id="path116" class="fill-target" fill="#70c62c" d="m 10316.7,6501.18 -752.05,738.38 84.13,85.69 752.02,-738.4 -84.1,-85.67"/>
      <path id="path118" class="fill-target" fill="#70c62c" d="m 10358.1,6889.31 -634.14,519.56 76.12,92.91 634.12,-519.58 -76.1,-92.89"/>
      <path id="path120" class="fill-target" fill="#70c62c" d="m 10687.6,7034.78 -820.11,557.04 67.48,99.35 820.03,-557.04 -67.4,-99.35"/>
      <path id="path122" class="fill-target" fill="#70c62c" d="m 10641.8,7427.16 -647.76,359.7 58.36,105.02 647.7,-359.72 -58.3,-105"/>
      <path id="path124" class="fill-target" fill="#70c62c" d="m 11380.4,7426.22 -1277.8,566.28 48.7,109.79 1277.7,-566.26 -48.6,-109.81"/>
      <path id="path126" class="fill-target" fill="#70c62c" d="m 10505.1,8100.79 -312.8,106.2 38.6,113.73 312.8,-106.22 -38.6,-113.71"/>
      <path id="path128" class="fill-target" fill="#70c62c" d="m 11478,8134.24 c 0,0 -1180.9,286.43 -1215.7,295.13 l 28.4,116.05 c 6.7,-1.63 1215.6,-294.44 1215.6,-294.44 l -28.3,-116.74"/>
      <path id="path130" class="fill-target" fill="#70c62c" d="m 11292.5,8509.78 -980.2,146.02 17.7,118.76 980.2,-146 -17.7,-118.78"/>
      <path id="path132" class="fill-target" fill="#70c62c" d="m 11186.4,8837.25 -844.7,49.2 7,119.9 844.7,-49.19 -7,-119.91"/>
      <path id="path134" class="fill-target" fill="#70c62c" d="m 10350.3,9118.78 -3.8,120.04 629,19.91 3.8,-120.06 -629,-19.89"/>
      <path id="path136" class="fill-target" fill="#70c62c" d="m 10338.1,9350.99 -14.6,119.22 541.9,66.11 14.6,-119.2 -541.9,-66.13"/>
      <path id="path138" class="fill-target" fill="#70c62c" d="m 10305,9581.13 -25.1,117.43 777.7,166.75 25.1,-117.45 -777.7,-166.73"/>
      <path id="path140" class="fill-target" fill="#70c62c" d="m 10251.5,9807.38 -35.6,114.69 359.1,111.53 35.6,-114.76 -359.1,-111.46"/>
      <path id="path142" class="fill-target" fill="#70c62c" d="m 10177.9,10028 -45.7,111 501.7,206.6 45.7,-111 -501.7,-206.6"/>
      <path id="path144" class="fill-target" fill="#70c62c" d="m 10084.8,10241 -55.5,106.5 1094.4,570.4 55.5,-106.5 -1094.4,-570.4"/>
      <path id="path146" class="fill-target" fill="#70c62c" d="m 9973.04,10444.9 -64.82,101.1 1328.08,851.6 64.8,-101.1 -1328.06,-851.6"/>
      <path id="path148" class="fill-target" fill="#70c62c" d="m 9843.42,10637.9 -73.64,94.9 283.82,220.3 73.7,-94.9 -283.88,-220.3"/>
      <path id="path150" class="fill-target" fill="#70c62c" d="m 9697.2,10818.7 -80.95,88.8 c 19.25,17.5 199.6,185.8 199.6,185.8 l 81.83,-87.9 c 0,0 -196.25,-182.7 -200.48,-186.7"/>
      <path id="path152" class="fill-target" fill="#70c62c" d="m 9535,10985.3 -89.39,80.2 1358.99,1514.6 89.4,-80.2 -1359,-1514.6"/>
      <path id="path154" class="fill-target" fill="#70c62c" d="m 7352.73,8736.38 c -6.81,-24.97 -18.15,-45.4 -36.31,-65.84 -18.17,-20.42 -40.87,-36.32 -72.65,-47.66 -31.77,-11.36 -72.64,-18.16 -120.3,-18.16 h -258.78 v 394.97 h 256.51 c 47.67,0 86.26,-4.54 115.77,-13.62 29.5,-9.08 54.48,-20.43 72.63,-36.32 18.16,-15.89 31.79,-36.32 40.86,-59.02 6.82,-24.97 11.36,-49.93 11.36,-79.45 0,-24.97 -2.28,-49.94 -9.09,-74.9 z m -488.04,898.9 h 215.65 c 40.86,0 77.17,-4.53 106.69,-9.07 29.5,-4.54 56.74,-15.89 74.9,-31.78 18.16,-15.89 34.06,-36.32 43.13,-61.3 9.09,-27.23 13.63,-56.74 13.63,-95.33 0,-38.59 -6.81,-70.37 -18.17,-95.34 -11.35,-24.97 -29.5,-45.4 -52.2,-59.02 -22.7,-13.62 -52.22,-22.7 -83.99,-29.51 -31.78,-6.81 -68.1,-9.08 -108.96,-11.35 h -190.68 z m 783.14,-610.62 c -49.94,56.75 -127.12,97.61 -231.54,122.58 47.67,18.16 88.53,38.59 122.58,61.29 34.05,24.97 61.29,49.94 83.99,79.45 20.43,29.51 38.59,59.02 47.67,93.06 11.35,31.79 15.89,65.84 15.89,102.16 0,65.83 -11.35,122.58 -34.05,177.05 -22.7,54.49 -59.02,99.89 -106.69,136.21 -47.67,36.31 -111.23,65.83 -188.4,86.25 -77.19,20.43 -170.25,29.51 -279.21,29.51 H 6494.68 V 8325.51 h 633.33 c 95.33,0 179.32,11.35 254.24,36.32 72.63,24.97 136.19,59.01 186.13,102.14 52.22,43.13 88.53,93.08 115.77,152.09 27.24,56.75 40.86,120.31 38.59,188.41 0,90.8 -24.97,163.44 -74.91,220.19"/>
      <path id="path156" class="fill-target" fill="#70c62c" d="m 8946.26,9630.75 v 281.47 H 7924.77 V 8325.51 h 1021.49 v 283.74 h -651.48 v 379.09 h 499.39 v 272.4 h -499.39 v 370.01 h 651.48"/>
      <path id="path158" class="fill-target" fill="#70c62c" d="m 1840.63,3594.7 c -125.32,0 -197.68,-84 -197.68,-223.5 0,-140.9 73.65,-223.5 197.68,-223.5 124.04,0 196.4,82.6 196.4,223.5 1.29,139.5 -72.36,223.5 -196.4,223.5 z m 0,-581.4 c -218.35,0 -364.35,155 -364.35,357.9 0,202.8 146,357.9 364.35,357.9 217.07,0 363.07,-156.4 363.07,-357.9 0,-201.6 -144.71,-357.9 -363.07,-357.9"/>
      <path id="path160" class="fill-target" fill="#70c62c" d="m 2654.62,3377.6 h 83.98 c 83.99,0 118.87,42.7 118.87,115 0,63.3 -37.47,107.3 -118.87,107.3 h -83.98 z m 0,-122.7 V 3021 h -162.79 v 700.3 h 246.77 c 196.4,0 281.67,-99.5 281.67,-228.7 0,-139.5 -87.86,-237.7 -281.67,-237.7 h -83.98"/>
      <path id="path162" class="fill-target" fill="#70c62c" d="M 3768.36,3721.3 V 3596 h -286.84 v -162.8 h 219.65 V 3313 h -219.65 v -166.6 h 286.84 V 3021 h -450.92 v 700.3 h 450.92 v 0"/>
      <path id="path164" class="fill-target" fill="#70c62c" d="m 4247.71,3696.8 332.05,-419.9 c -2.59,27.1 -3.88,52.9 -3.88,74.9 v 370.8 h 143.42 v -700.3 h -83.98 c -24.55,0 -41.35,6.5 -56.85,27.2 l -329.48,417.3 c 1.3,-24.6 3.88,-47.8 3.88,-68.5 v -374.7 h -143.41 v 700.3 h 85.27 c 27.14,-2.6 36.18,-6.5 52.98,-27.1"/>
      <path id="path166" class="fill-target" fill="#70c62c" d="m 5716.3,3449.6 h 25.84 c 24.55,0 41.35,7.8 51.68,22 l 157.63,228.7 c 16.8,24.5 37.47,32.3 69.77,32.3 h 140.84 l -206.73,-283 c -15.51,-20.6 -31.01,-33.6 -47.81,-42.6 24.55,-9 43.93,-23.3 60.73,-50.4 l 211.89,-324.3 h -144.71 c -37.47,0 -50.39,10.3 -63.31,29.7 l -158.92,244.2 c -11.63,18.1 -27.13,24.6 -58.14,24.6 h -38.76 v -298.5 h -161.51 v 700.3 h 162.8 v -283 h -1.29"/>
      <path id="path168" class="fill-target" fill="#70c62c" d="m 6628.48,3708 332.05,-419.9 c -2.58,27.2 -3.87,53 -3.87,75 v 370.8 h 143.41 v -700.3 h -83.98 c -24.55,0 -41.34,6.5 -56.85,27.1 l -329.47,417.4 c 1.29,-24.6 3.88,-47.8 3.88,-68.5 v -374.7 h -143.42 v 700.3 h 85.27 c 27.14,-2.6 34.89,-6.5 52.98,-27.2"/>
      <path id="path170" class="fill-target" fill="#70c62c" d="m 7774.52,3606 c -125.33,0 -197.68,-84 -197.68,-223.5 0,-140.9 73.64,-223.6 197.68,-223.6 124.03,0 196.39,82.7 196.39,223.6 0,139.5 -72.36,223.5 -196.39,223.5 z m 0,-581.4 c -218.36,0 -364.36,155 -364.36,357.9 0,202.8 146,357.8 364.36,357.8 217.06,0 363.06,-156.3 363.06,-357.8 0,-201.6 -146,-357.9 -363.06,-357.9"/>
      <path id="path172" class="fill-target" fill="#70c62c" d="m 8315.88,3732.6 h 136.96 c 28.42,0 47.8,-14.2 54.26,-34.9 l 95.61,-365.6 c 6.46,-23.3 12.92,-50.4 16.8,-80.1 6.46,29.7 14.21,56.8 21.96,80.1 l 113.71,365.6 c 5.16,18.1 25.84,34.9 52.97,34.9 h 47.8 c 28.43,0 46.52,-12.9 54.27,-34.9 l 112.41,-365.6 c 7.75,-22 15.5,-47.8 20.67,-76.3 5.17,28.5 10.33,54.3 16.79,76.3 l 95.61,365.6 c 5.17,19.4 25.85,34.9 52.98,34.9 h 127.91 l -215.77,-700.3 h -147.29 l -131.79,434.1 c -3.87,13 -9.04,29.8 -14.21,47.8 -3.88,-18 -9.04,-33.6 -14.21,-47.8 l -133.08,-434.1 h -147.3 l -217.06,700.3"/>
      <path id="path174" class="fill-target" fill="#70c62c" d="m 9790.1,3162.8 h 259.7 v -129.2 h -422.5 v 700.3 h 162.8 v -571.1"/>
      <path id="path176" class="fill-target" fill="#70c62c" d="m 10845.7,3732.6 v -125.3 h -286.8 v -162.8 h 219.6 v -120.2 h -219.6 v -166.7 h 286.8 v -125.3 h -450.9 v 700.3 h 450.9"/>
      <path id="path178" class="fill-target" fill="#70c62c" d="m 11458.1,3607.3 h -108.5 v -449.7 h 108.5 c 124.1,0 196.4,85.3 196.4,224.9 1.3,139.5 -72.3,224.8 -196.4,224.8 z m 0,-575 h -271.3 v 700.3 h 271.3 c 217.1,0 363.1,-148.6 363.1,-350.1 1.3,-201.6 -144.7,-350.2 -363.1,-350.2"/>
      <path id="path180" class="fill-target" fill="#70c62c" d="m 12549.9,3170.6 v 105.9 h -69.8 c -20.7,0 -32.3,11.6 -32.3,28.4 v 89.2 h 249.4 v -295.9 c -71.1,-53 -153.8,-74.9 -268.8,-74.9 -204.1,0 -357.9,152.4 -357.9,357.9 0,209.3 144.8,357.9 369.6,357.9 117.5,0 204.1,-40.1 261,-94.4 l -46.6,-71 c -9,-12.9 -21.9,-22 -36.1,-22 -9.1,0 -19.4,3.9 -29.7,9.1 -51.7,31 -87.9,43.9 -152.5,43.9 -121.5,0 -197.7,-89.2 -197.7,-223.5 0,-148.6 86.6,-232.6 204.2,-232.6 42.6,1.3 76.2,9 107.2,22"/>
      <path id="path182" class="fill-target" fill="#70c62c" d="m 13476.3,3732.6 v -125.3 h -286.9 v -162.8 h 219.7 v -120.2 h -219.7 v -166.7 h 286.9 v -125.3 h -450.9 v 700.3 h 450.9"/>
      <path id="path184" class="fill-target" fill="#70c62c" d="m 4658.34,2159.5 v -239 h 148.59 c 27.13,0 49.1,2.6 68.48,9.1 19.38,6.4 34.88,14.2 46.51,25.8 12.92,11.6 21.97,24.5 27.13,38.8 5.17,15.5 9.05,32.3 9.05,50.3 0,36.2 -12.92,63.4 -37.47,84 -24.55,20.7 -63.31,31 -113.7,31 z m 0,67.2 h 122.75 c 25.84,0 49.1,2.6 68.48,9.1 19.38,6.4 34.88,14.2 47.8,24.5 12.92,10.3 21.97,23.3 28.43,37.5 6.46,14.2 9.04,31 9.04,47.8 0,40 -11.63,69.8 -36.18,89.1 -24.54,19.4 -62.01,28.5 -113.69,28.5 h -126.63 v -236.5 z m -93.02,-381.1 v 688.6 h 219.65 c 42.63,0 78.81,-3.9 109.82,-12.9 31.01,-9 55.56,-20.7 74.94,-36.2 19.38,-15.5 34.88,-33.6 43.93,-56.8 9.04,-22 14.21,-47.8 14.21,-75 0,-16.8 -2.59,-33.6 -7.75,-49.1 -5.17,-15.5 -12.92,-29.7 -24.55,-43.9 -10.34,-12.9 -24.55,-25.8 -40.06,-36.2 -16.79,-10.3 -34.88,-19.3 -56.85,-25.8 50.39,-10.3 87.86,-28.4 113.7,-54.3 25.84,-25.8 38.76,-60.7 38.76,-103.3 0,-29.7 -5.16,-55.6 -15.5,-80.1 -10.34,-24.6 -25.84,-45.3 -46.51,-62.1 -20.68,-16.8 -46.52,-31 -76.23,-40 -29.72,-9.1 -64.61,-14.2 -102.07,-14.2 h -245.49 v 1.3"/>
      <path id="path186" class="fill-target" fill="#70c62c" d="M 5898.7,2534.2 V 2458 h -330.76 v -228.7 h 267.45 v -73.6 h -267.45 v -235.2 h 330.76 v -76.2 h -423.79 v 688.6 h 423.79 v 1.3"/>
      <path id="path188" class="fill-target" fill="#70c62c" d="m 6415.52,1924.4 h 298.46 v -78.8 h -391.49 v 688.6 h 93.03 v -609.8"/>
      <path id="path190" class="fill-target" fill="#70c62c" d="m 7410.39,1914 c 18.09,0 36.17,1.3 51.68,2.6 15.5,1.3 29.72,3.9 43.93,7.8 14.21,3.9 27.13,7.7 38.76,12.9 11.63,5.2 24.55,10.3 36.18,16.8 v 152.5 H 7473.7 c -6.46,0 -10.34,1.3 -14.22,5.1 -3.87,3.9 -5.16,7.8 -5.16,12.9 v 53 h 211.89 v -264.8 c -16.8,-13 -34.89,-23.3 -54.27,-32.3 -18.08,-9.1 -38.76,-16.8 -59.43,-23.3 -20.67,-6.5 -43.93,-10.3 -68.48,-14.2 -24.55,-2.6 -50.39,-5.2 -78.81,-5.2 -50.39,0 -95.61,9.1 -136.96,25.9 -41.34,16.8 -77.52,41.3 -107.23,72.3 -29.72,31 -52.98,68.5 -69.78,111.1 -16.79,42.7 -25.83,90.5 -25.83,142.2 0,52.9 7.74,100.7 24.54,143.4 16.8,42.6 40.05,80.1 71.07,111.1 31.01,31 67.18,54.2 111.11,72.3 43.93,16.8 91.73,25.9 146,25.9 27.13,0 52.97,-2.6 76.23,-6.5 23.26,-3.9 45.22,-10.3 64.6,-16.8 20.67,-7.7 38.76,-16.8 55.56,-27.1 16.8,-10.4 32.3,-23.3 47.8,-36.2 l -25.84,-42.6 c -5.16,-9.1 -12.92,-12.9 -20.67,-12.9 -5.17,0 -10.33,1.2 -16.79,5.1 -7.76,3.9 -16.8,10.4 -27.14,16.8 -10.33,6.5 -21.96,12.9 -36.17,18.1 -14.22,5.2 -31.01,10.3 -50.39,15.5 -19.38,5.2 -42.64,6.5 -68.48,6.5 -38.76,0 -73.65,-6.5 -104.66,-19.4 -31,-12.9 -58.14,-31 -80.1,-54.3 -21.97,-23.2 -38.76,-51.7 -50.39,-85.3 -11.63,-33.5 -18.09,-71 -18.09,-112.4 0,-43.9 6.46,-82.6 18.09,-116.2 12.92,-33.6 29.72,-63.3 51.68,-86.6 21.97,-23.3 49.1,-41.4 80.11,-54.3 25.84,-12.9 60.72,-19.4 96.9,-19.4"/>
      <path id="path192" class="fill-target" fill="#70c62c" d="m 8207.57,1845.6 h -93.02 v 688.6 h 93.02 v -688.6"/>
      <path id="path194" class="fill-target" fill="#70c62c" d="m 8949.2,1920.5 c 28.43,0 54.27,5.2 76.23,14.2 21.97,9.1 41.35,23.3 56.86,40.1 15.5,16.8 27.13,37.4 36.17,62 9.05,24.5 11.63,50.4 11.63,78.8 v 418.6 h 93.03 v -418.6 c 0,-40 -6.46,-76.2 -19.38,-111.1 -12.92,-33.6 -31.01,-63.3 -54.27,-87.9 -23.25,-24.5 -51.68,-43.9 -86.56,-58.1 -33.6,-14.2 -72.36,-20.7 -114.99,-20.7 -42.64,0 -80.11,6.5 -115,20.7 -34.88,14.2 -63.31,33.6 -86.56,58.1 -23.26,24.6 -41.35,54.3 -54.27,87.9 -12.92,33.6 -19.38,71.1 -19.38,111.1 v 418.6 h 93.03 v -418.6 c 0,-28.4 3.87,-55.6 11.63,-78.8 7.75,-23.3 19.38,-45.2 36.17,-62 16.8,-16.8 34.89,-31 56.86,-40.1 21.96,-9 49.09,-14.2 78.8,-14.2"/>
      <path id="path196" class="fill-target" fill="#70c62c" d="m 10021.6,2070.4 c 3.9,-9.1 6.5,-16.8 10.3,-25.9 2.6,9.1 6.5,18.1 10.4,25.9 3.8,7.7 7.7,16.8 11.6,24.5 l 232.6,423.8 c 3.8,7.8 9,11.6 12.9,12.9 3.9,1.3 10.3,2.6 19.4,2.6 h 68.4 v -688.6 h -81.4 V 2352 c 0,6.5 0,14.3 0,22 0,7.8 1.3,15.5 1.3,23.3 L 10070.7,1967 c -7.8,-14.2 -19.4,-21.9 -33.6,-21.9 h -12.9 c -14.2,0 -25.86,7.7 -33.61,21.9 l -241.61,431.6 c 1.29,-7.8 1.29,-16.8 2.58,-24.6 0,-7.7 1.29,-15.5 1.29,-22 v -506.4 h -81.39 v 688.6 h 68.47 c 7.76,0 14.22,-1.3 19.38,-2.6 3.88,-1.3 9.05,-6.4 12.93,-12.9 L 10010,2094.9 c 3.8,-7.7 7.7,-15.5 11.6,-24.5"/>
    </g>
  </g>
</svg>
